# xmcd
#
# Track frame offsets:
#	150
#	2721
#	11967
#	22411
#	35351
#	48509
#	54877
#	67704
#	78608
#	92821
#	107010
#	117391
#
# Disc length: 1755 seconds
#
# Revision: 0
# Processed by: cddbd v1.4PL0 Copyright (c) Steve Scherf et al.
# Submitted via: dBpowerAMP V4.0
#
DISCID=9706d90c
DTITLE=Porch Ghouls - Columbia Records Promotional Release
DYEAR=2003
DGENRE=Blues
TTITLE0=God's Little Acre
TTITLE1=Girl On the Road (Ford Failure)
TTITLE2=Priming the Well
TTITLE3=Fly In the Coffin
TTITLE4=Tragic Ground
TTITLE5=John the Indian and George Hopkins
TTITLE6=Little Candy for Tessie
TTITLE7=Mississippi River Payday
TTITLE8=Ten Thousand Blue Berry Crates
TTITLE9=A Knife to Cut the Cornbread
TTITLE10=Bluff City Ruckus
TTITLE11=Nine Dollars Worth of Mumble
EXTD=
EXTT0=
EXTT1=
EXTT2=
EXTT3=
EXTT4=
EXTT5=
EXTT6=
EXTT7=
EXTT8=
EXTT9=
EXTT10=
EXTT11=
PLAYORDER=
